<svg width="24" height="17" viewBox="0 0 24 17" fill="none" xmlns="http://www.w3.org/2000/svg">
<path d="M12.5316 16.9431L7.60776 16.8511C6.01353 16.819 4.41534 16.883 2.85238 16.5508C0.474749 16.0544 0.306309 13.6207 0.130055 11.5792C-0.112806 8.70908 -0.0187873 5.78691 0.439522 2.94079C0.698253 1.34382 1.71646 0.390892 3.29109 0.287195C8.60661 -0.0891339 13.9575 -0.044535 19.2612 0.131036C19.8214 0.147131 20.3853 0.235101 20.9377 0.335234C23.6641 0.823615 23.7306 3.58164 23.9073 5.90338C24.0836 8.24908 24.0091 10.6068 23.6723 12.9366C23.402 14.8655 22.8849 16.4831 20.7026 16.6393C17.9684 16.8435 15.2969 17.0079 12.555 16.9555C12.5551 16.9431 12.5394 16.9431 12.5316 16.9431ZM9.63684 12.0596C11.6973 10.8506 13.7185 9.66176 15.7672 8.4609C13.7028 7.25193 11.6855 6.06311 9.63684 4.86224V12.0596Z" fill="#1678F2"/>
</svg>
