<svg width="617" height="99" viewBox="0 0 617 99" fill="none" xmlns="http://www.w3.org/2000/svg">
<path d="M1.00077 97.1081V1.00077H108.927C127.889 1.00077 143.827 1.98748 156.753 3.9565C169.679 5.92552 179.445 8.71385 186.039 12.3083C192.644 15.9071 195.942 20.1447 195.942 25.0254C195.942 28.5626 193.934 31.7826 189.929 34.6943C185.913 37.6016 180.312 40.0375 173.101 41.9933C165.891 43.9491 157.46 45.3014 147.82 46.0547V46.9929C158.521 47.1515 168.241 48.1911 176.992 50.1116C185.742 52.0366 192.713 54.6796 197.892 58.0406C203.072 61.4015 205.673 65.3528 205.673 69.8899C205.673 75.145 202.125 79.8231 195.04 83.9197C187.944 88.0207 177.882 91.2407 164.841 93.5886C151.79 95.9364 136.24 97.1081 118.168 97.1081H1.00077ZM68.5746 39.8569H96.2864C102.196 39.8569 107.421 39.4957 111.962 38.7777C116.503 38.0597 120.039 37.0157 122.595 35.659C125.15 34.2978 126.428 32.6328 126.428 30.6593C126.428 27.686 123.667 25.413 118.168 23.8317C112.658 22.2547 105.687 21.4618 97.2676 21.4618H68.5746V39.8569ZM68.5746 76.2727H100.177C111.517 76.2727 120.028 75.4533 125.698 73.8103C131.368 72.1672 134.209 69.7357 134.209 66.5113C134.209 64.2604 132.874 62.353 130.193 60.7848C127.523 59.2211 123.724 58.0317 118.83 57.2168C113.924 56.4019 108.037 55.9967 101.147 55.9967H68.5746V76.2727Z" stroke="#F4F4F4" stroke-width="2"/>
<path d="M229.494 1.00077H313.6L371.453 55.4372H374.374L432.227 1.00077H516.332V97.1081H450.208V41.544H448.257L392.833 96.3549H352.971L297.559 41.1696H295.608V97.1081H229.483V1.00077H229.494Z" stroke="#F4F4F4" stroke-width="2"/>
<path d="M615.999 1.00077V97.1081H548.425V1.00077H615.999Z" stroke="#F4F4F4" stroke-width="2"/>
</svg>
