<svg width="22" height="17" viewBox="0 0 22 17" fill="none" xmlns="http://www.w3.org/2000/svg">
<path d="M21.1477 3.38969V13.5373C21.1477 14.2101 20.8804 14.8554 20.4046 15.3311C19.9289 15.8069 19.2836 16.0742 18.6108 16.0742H3.3894C2.71657 16.0742 2.0713 15.8069 1.59554 15.3311C1.11978 14.8554 0.852502 14.2101 0.852502 13.5373V3.38969" stroke="#1678F2" stroke-width="1.67948" stroke-linecap="round" stroke-linejoin="round"/>
<path d="M21.1477 3.3894C21.1477 2.71657 20.8804 2.0713 20.4046 1.59554C19.9289 1.11978 19.2836 0.852502 18.6108 0.852502H3.3894C2.71657 0.852502 2.0713 1.11978 1.59554 1.59554C1.11978 2.0713 0.852502 2.71657 0.852502 3.3894L9.65554 8.88601C10.0587 9.13801 10.5246 9.27163 11.0001 9.27163C11.4756 9.27163 11.9415 9.13801 12.3447 8.88601L21.1477 3.3894Z" stroke="#1678F2" stroke-width="1.67948" stroke-linecap="round" stroke-linejoin="round"/>
</svg>
