<svg width="22" height="18" viewBox="0 0 22 18" fill="none" xmlns="http://www.w3.org/2000/svg">
<path d="M14.6995 0.00396198V0H15.731L16.1079 0.0752776C16.3592 0.124149 16.5873 0.188194 16.7923 0.267434C16.9973 0.346673 17.1957 0.439126 17.3874 0.544772C17.5792 0.650419 17.7531 0.758066 17.9092 0.867674C18.0639 0.975975 18.2027 1.09087 18.3257 1.21237C18.4474 1.33519 18.6372 1.36688 18.895 1.30745C19.1529 1.24802 19.4307 1.16548 19.7282 1.05983C20.0258 0.954184 20.32 0.835324 20.611 0.703252C20.9019 0.571179 21.0792 0.487324 21.1426 0.451666C21.2048 0.414701 21.2379 0.394891 21.2418 0.392236L21.2458 0.386293L21.2656 0.376388L21.2854 0.366483L21.3053 0.356578L21.3251 0.346673L21.3291 0.34073L21.335 0.336768L21.341 0.332806L21.345 0.326863L21.3648 0.320921L21.3846 0.316959L21.3807 0.346673L21.3747 0.376388L21.3648 0.406103L21.3549 0.435818L21.345 0.455628L21.335 0.475438L21.3251 0.505153C21.3185 0.524963 21.3119 0.551369 21.3053 0.584392C21.2987 0.617415 21.2359 0.749468 21.1168 0.98059C20.9978 1.21171 20.849 1.44612 20.6705 1.68384C20.492 1.92156 20.3319 2.10116 20.1904 2.22267C20.0476 2.34549 19.9531 2.43133 19.9068 2.4802C19.8605 2.53038 19.8043 2.5766 19.7381 2.61887L19.6389 2.68424L19.6191 2.69415L19.5993 2.70405L19.5953 2.71L19.5894 2.71396L19.5834 2.71792L19.5794 2.72386L19.5596 2.73377L19.5398 2.74367L19.5358 2.74961L19.5298 2.75358L19.5239 2.75754L19.5199 2.76348L19.516 2.76943L19.51 2.77339L19.5041 2.77735L19.5001 2.78329H19.5993L20.1547 2.66443C20.525 2.58519 20.8788 2.48945 21.216 2.37719L21.7516 2.1989L21.8111 2.17909L21.8409 2.16918L21.8607 2.15928L21.8806 2.14937L21.9004 2.13947L21.9202 2.12957L21.9599 2.12362L21.9996 2.11966V2.15928L21.9897 2.16324L21.9798 2.16918L21.9758 2.17513L21.9698 2.17909L21.9639 2.18305L21.9599 2.18899L21.956 2.19494L21.95 2.1989L21.944 2.20286L21.9401 2.2088L21.9361 2.21475L21.9302 2.21871L21.9202 2.23852L21.9103 2.25833L21.9044 2.26229C21.9017 2.26625 21.8178 2.3785 21.6524 2.59906C21.4871 2.82093 21.3979 2.93317 21.3846 2.93583C21.3714 2.93979 21.3529 2.9596 21.3291 2.99526C21.3066 3.03222 21.1664 3.17949 20.9085 3.43702C20.6507 3.69455 20.3981 3.92367 20.1508 4.12442C19.9022 4.32648 19.7765 4.57476 19.7739 4.86927C19.7699 5.16246 19.7547 5.49396 19.7282 5.86373C19.7018 6.23352 19.6522 6.63301 19.5794 7.06223C19.5067 7.49145 19.3943 7.9768 19.2422 8.51826C19.0901 9.05972 18.905 9.588 18.6868 10.1031C18.4685 10.6181 18.2404 11.0803 18.0024 11.4897C17.7643 11.8992 17.5461 12.2458 17.3477 12.5298C17.1494 12.8137 16.9477 13.0811 16.7427 13.3321C16.5377 13.583 16.2785 13.8656 15.9651 14.1799C15.6503 14.4929 15.4784 14.6646 15.4493 14.695C15.4189 14.724 15.2893 14.8324 15.0605 15.0199C14.833 15.2087 14.5884 15.3976 14.3265 15.5864C14.066 15.774 13.8266 15.9305 13.6084 16.0559C13.3902 16.1814 13.127 16.3247 12.8189 16.4858C12.5121 16.6482 12.1801 16.7988 11.823 16.9375C11.466 17.0761 11.0891 17.2049 10.6923 17.3238C10.2956 17.4426 9.91206 17.5351 9.54175 17.6011C9.17147 17.6671 8.75157 17.7233 8.28208 17.7695L7.57786 17.8388V17.8487H6.28843V17.8388L6.11981 17.8289C6.00742 17.8223 5.91483 17.8157 5.84209 17.8091C5.76937 17.8025 5.49494 17.7662 5.01884 17.7002C4.54275 17.6341 4.16915 17.5681 3.89803 17.5021C3.62694 17.436 3.22356 17.3105 2.68796 17.1257C2.15235 16.9408 1.69411 16.7539 1.31323 16.565C0.933683 16.3775 0.695635 16.2586 0.599087 16.2085C0.503868 16.1596 0.396746 16.0989 0.277723 16.0262L0.0991866 15.9173L0.095239 15.9113L0.0892679 15.9074L0.0833167 15.9034L0.0793493 15.8975L0.059512 15.8875L0.0396746 15.8776L0.035727 15.8717L0.029756 15.8677L0.0238048 15.8638L0.0198373 15.8578L0.0158897 15.8519L0.00991866 15.8479H0V15.8083L0.0198373 15.8123L0.0396746 15.8182L0.128943 15.8281C0.188455 15.8347 0.350466 15.8446 0.614957 15.8578C0.879468 15.871 1.16048 15.871 1.45804 15.8578C1.7556 15.8446 2.05979 15.8149 2.37056 15.7687C2.68135 15.7225 3.04834 15.6432 3.47153 15.531C3.89474 15.4187 4.28355 15.2853 4.63799 15.1308C4.99109 14.975 5.24235 14.8588 5.3918 14.7822C5.53991 14.7069 5.76606 14.5669 6.07022 14.3622L6.52648 14.0551L6.53045 14.0492L6.5364 14.0452L6.54237 14.0413L6.54632 14.0353L6.55028 14.0294L6.55624 14.0254L6.56221 14.0215L6.56615 14.0155L6.58599 14.0096L6.60583 14.0056L6.6098 13.9858L6.61575 13.966L6.62172 13.962L6.62567 13.9561L6.46697 13.9462C6.36117 13.9396 6.25868 13.933 6.15949 13.9264C6.0603 13.9198 5.90492 13.8901 5.69331 13.8372C5.48173 13.7844 5.2536 13.7051 5.00892 13.5995C4.76427 13.4939 4.52622 13.3684 4.29478 13.2231C4.06336 13.0778 3.89605 12.957 3.7929 12.8606C3.69107 12.7655 3.55882 12.6308 3.39615 12.4565C3.23481 12.2808 3.09462 12.1005 2.9756 11.9157C2.85657 11.7308 2.74285 11.5175 2.63442 11.2758L2.46975 10.9153L2.45983 10.8855L2.44991 10.8558L2.44396 10.836L2.43999 10.8162L2.46975 10.8202L2.4995 10.8261L2.71771 10.8558C2.8632 10.8756 3.09133 10.8822 3.4021 10.8756C3.71289 10.869 3.92779 10.8558 4.04681 10.836C4.16584 10.8162 4.23858 10.803 4.26502 10.7964L4.3047 10.7865L4.35429 10.7766L4.40389 10.7667L4.40785 10.7607L4.4138 10.7568L4.41978 10.7528L4.42372 10.7469L4.38405 10.737L4.34437 10.7271L4.3047 10.7172L4.26502 10.7073L4.22535 10.6973C4.19891 10.6908 4.15263 10.6775 4.08649 10.6577C4.02037 10.6379 3.84183 10.5653 3.55088 10.4398C3.25995 10.3144 3.0285 10.1922 2.85657 10.0733C2.68422 9.95413 2.51988 9.82377 2.36461 9.68308C2.20988 9.54045 2.03995 9.35687 1.85479 9.13237C1.66965 8.90786 1.50434 8.64702 1.35886 8.34988C1.21339 8.05273 1.10428 7.76879 1.03154 7.49805C0.95909 7.2289 0.91129 6.95373 0.888732 6.67594L0.853005 6.25993L0.872842 6.26389L0.89268 6.26984L0.912517 6.27974L0.932354 6.28965L0.952191 6.29955L0.972029 6.30946L1.27951 6.44812C1.48451 6.54058 1.73908 6.61982 2.04324 6.68584C2.34743 6.75187 2.52926 6.7882 2.58877 6.7948L2.67804 6.8047H2.85657L2.85263 6.79876L2.84666 6.7948L2.8407 6.79084L2.83674 6.78489L2.83279 6.77895L2.82682 6.77499L2.82087 6.77103L2.8169 6.76508L2.79706 6.75518L2.77723 6.74527L2.77328 6.73933L2.76731 6.73537L2.76136 6.73141L2.75739 6.72546L2.73755 6.71556L2.71771 6.70565L2.71377 6.69971C2.7098 6.69706 2.65292 6.6548 2.54314 6.57293C2.43469 6.48973 2.32097 6.3821 2.20194 6.25003C2.08292 6.11795 1.96389 5.97928 1.84487 5.83402C1.72563 5.68842 1.61942 5.53264 1.52747 5.36848C1.43491 5.20341 1.33704 4.9934 1.23388 4.73853C1.13206 4.48496 1.05469 4.22942 1.00178 3.97189C0.948898 3.71436 0.919143 3.46014 0.912517 3.2092C0.905911 2.95827 0.912517 2.74367 0.932354 2.56538C0.952191 2.38709 0.991866 2.18569 1.05138 1.96118C1.11089 1.73668 1.19686 1.49896 1.30926 1.24802L1.47788 0.871636L1.4878 0.841921L1.49772 0.812206L1.50369 0.808244L1.50764 0.802301L1.5116 0.796358L1.51756 0.792396L1.52353 0.796358L1.52747 0.802301L1.53144 0.808244L1.53739 0.812206L1.54336 0.816168L1.54731 0.822111L1.55128 0.828054L1.55723 0.832016L1.56715 0.851826L1.57707 0.871636L1.58304 0.875598L1.58699 0.881541L1.85479 1.17869C2.03333 1.37679 2.24493 1.59801 2.48958 1.84232C2.73426 2.08664 2.86981 2.21342 2.89625 2.22267C2.92271 2.23323 2.95576 2.2636 2.99544 2.3138C3.03511 2.36267 3.16737 2.47955 3.39218 2.66443C3.61702 2.84932 3.91127 3.06394 4.27494 3.30825C4.63864 3.55257 5.04199 3.7936 5.48502 4.03132C5.92807 4.26903 6.40416 4.48364 6.91331 4.67514C7.42247 4.86664 7.77954 4.9921 7.98452 5.05153C8.18952 5.11096 8.53997 5.18689 9.0359 5.27934C9.53183 5.37179 9.90545 5.43122 10.1567 5.45763C10.408 5.48404 10.5799 5.49923 10.6725 5.50319L10.8113 5.50715L10.8074 5.47744L10.8014 5.44772L10.7617 5.2001C10.7353 5.03502 10.7221 4.8039 10.7221 4.50675C10.7221 4.2096 10.7452 3.93557 10.7915 3.68464C10.8378 3.43371 10.9072 3.17949 10.9998 2.92196C11.0924 2.66443 11.183 2.45774 11.2716 2.30191C11.3615 2.14739 11.4792 1.97109 11.6247 1.77299C11.7702 1.57489 11.9586 1.37019 12.19 1.15888C12.4215 0.947567 12.686 0.759373 12.9835 0.594297C13.2811 0.429221 13.5555 0.303745 13.8068 0.217909C14.0581 0.132073 14.2697 0.0759314 14.4416 0.0495248C14.6135 0.0231182 14.6995 0.00792396 14.6995 0.00396198Z" fill="#1678F2"/>
</svg>
