<svg width="27" height="30" viewBox="0 0 27 30" fill="none" xmlns="http://www.w3.org/2000/svg">
<path fill-rule="evenodd" clip-rule="evenodd" d="M26.9999 15.2876C26.9999 14.2277 26.9123 13.2085 26.7495 12.2301H13.7757V18.0122H21.1893C20.8699 19.8807 19.8994 21.4638 18.4405 22.5237V26.2743H22.8924C25.4972 23.672 26.9999 19.8399 26.9999 15.2876Z" fill="#4285F4"/>
<path fill-rule="evenodd" clip-rule="evenodd" d="M13.7758 29.8957C17.4952 29.8957 20.6134 28.5572 22.8925 26.2742L18.4406 22.5237C17.2071 23.4205 15.6292 23.9505 13.7758 23.9505C10.188 23.9505 7.15119 21.321 6.06796 17.7879H1.46577V21.6608C3.73243 26.546 8.39097 29.8957 13.7758 29.8957Z" fill="#34A853"/>
<path fill-rule="evenodd" clip-rule="evenodd" d="M6.06737 17.7879C5.79187 16.8911 5.63533 15.9331 5.63533 14.9479C5.63533 13.9627 5.79187 13.0046 6.06737 12.1078V8.2349H1.46519C0.532226 10.2529 0 12.5358 0 14.9479C0 17.3599 0.532226 19.6428 1.46519 21.6608L6.06737 17.7879Z" fill="#FBBC05"/>
<path fill-rule="evenodd" clip-rule="evenodd" d="M13.7749 5.94517C15.7973 5.94517 17.6131 6.69936 19.0408 8.18056L22.9917 3.89324C20.6061 1.4812 17.4879 0 13.7749 0C8.38998 0 3.73144 3.34968 1.46479 8.23491L6.06697 12.1078C7.15021 8.57464 10.187 5.94517 13.7749 5.94517Z" fill="#EA4335"/>
</svg>
