<svg width="23" height="23" viewBox="0 0 23 23" fill="none" xmlns="http://www.w3.org/2000/svg">
<path fill-rule="evenodd" clip-rule="evenodd" d="M1.02879 11.3732C1.02879 7.02116 1.02879 4.84515 2.06584 3.27783C2.52893 2.57795 3.12832 1.97857 3.8282 1.51548C5.39551 0.478428 7.57152 0.478428 11.9235 0.478428C16.2755 0.478428 18.4516 0.478428 20.0189 1.51548C20.7188 1.97857 21.3181 2.57795 21.7812 3.27783C22.8183 4.84515 22.8183 7.02116 22.8183 11.3732C22.8183 15.7252 22.8183 17.9012 21.7812 19.4685C21.3181 20.1684 20.7188 20.7678 20.0189 21.2309C18.4516 22.2679 16.2755 22.2679 11.9235 22.2679C7.57152 22.2679 5.39551 22.2679 3.8282 21.2309C3.12832 20.7678 2.52893 20.1684 2.06584 19.4685C1.02879 17.9012 1.02879 15.7252 1.02879 11.3732ZM17.5636 11.3733C17.5636 14.4884 15.0384 17.0137 11.9233 17.0137C8.80821 17.0137 6.28294 14.4884 6.28294 11.3733C6.28294 8.25827 8.80821 5.733 11.9233 5.733C15.0384 5.733 17.5636 8.25827 17.5636 11.3733ZM11.9233 15.1054C13.9844 15.1054 15.6553 13.4345 15.6553 11.3733C15.6553 9.31218 13.9844 7.64128 11.9233 7.64128C9.86212 7.64128 8.19122 9.31218 8.19122 11.3733C8.19122 13.4345 9.86212 15.1054 11.9233 15.1054ZM17.7864 6.77493C18.5184 6.77493 19.1117 6.18156 19.1117 5.44961C19.1117 4.71766 18.5184 4.1243 17.7864 4.1243C17.0545 4.1243 16.4611 4.71766 16.4611 5.44961C16.4611 6.18156 17.0545 6.77493 17.7864 6.77493Z" fill="#1678F2"/>
</svg>
