<svg width="24" height="24" viewBox="0 0 24 24" fill="none" xmlns="http://www.w3.org/2000/svg">
<path d="M20.233 10.7471C20.233 17.2017 13.622 21.1781 12.2482 21.9356C12.1721 21.9776 12.0866 21.9996 11.9996 21.9996C11.9127 21.9996 11.8272 21.9776 11.7511 21.9356C10.3762 21.1781 3.76726 17.2017 3.76726 10.7471C3.76726 5.60152 6.8546 1.99963 12.0002 1.99963C17.1457 1.99963 20.233 5.60152 20.233 10.7471Z" stroke="#1678F2" stroke-width="1.67948" stroke-linecap="round" stroke-linejoin="round"/>
<path d="M7.88375 10.2331C7.88375 11.3248 8.31745 12.3718 9.08943 13.1438C9.86142 13.9158 10.9084 14.3495 12.0002 14.3495C13.0919 14.3495 14.139 13.9158 14.911 13.1438C15.6829 12.3718 16.1166 11.3248 16.1166 10.2331C16.1166 9.14131 15.6829 8.09427 14.911 7.32229C14.139 6.55031 13.0919 6.11661 12.0002 6.11661C10.9084 6.11661 9.86142 6.55031 9.08943 7.32229C8.31745 8.09427 7.88375 9.14131 7.88375 10.2331V10.2331Z" stroke="#1678F2" stroke-width="1.67948" stroke-linecap="round" stroke-linejoin="round"/>
</svg>
