<svg width="30" height="30" viewBox="0 0 30 30" fill="none" xmlns="http://www.w3.org/2000/svg">
<path d="M2.8125 19.6875L9.26126 13.2387C10.3596 12.1404 12.1404 12.1404 13.2387 13.2387L19.6875 19.6875M17.8125 17.8125L19.5738 16.0512C20.6721 14.9529 22.4529 14.9529 23.5512 16.0512L27.1875 19.6875M4.6875 24.375H25.3125C26.348 24.375 27.1875 23.5355 27.1875 22.5V7.5C27.1875 6.46447 26.348 5.625 25.3125 5.625H4.6875C3.65197 5.625 2.8125 6.46447 2.8125 7.5V22.5C2.8125 23.5355 3.65197 24.375 4.6875 24.375ZM17.8125 10.3125H17.8219V10.3219H17.8125V10.3125ZM18.2812 10.3125C18.2812 10.5714 18.0714 10.7812 17.8125 10.7812C17.5536 10.7812 17.3438 10.5714 17.3438 10.3125C17.3438 10.0536 17.5536 9.84375 17.8125 9.84375C18.0714 9.84375 18.2812 10.0536 18.2812 10.3125Z" stroke="#4F555A" stroke-width="1.37778" stroke-linecap="round" stroke-linejoin="round"/>
</svg>
