<svg width="20" height="20" viewBox="0 0 20 20" fill="none" xmlns="http://www.w3.org/2000/svg">
<path d="M12.4884 7.06195L10.3782 2.48702C10.2292 2.16416 9.77036 2.16416 9.62144 2.48702L7.51123 7.06195C7.45054 7.19353 7.32583 7.28413 7.18193 7.3012L2.17883 7.89439C1.82575 7.93626 1.68395 8.37267 1.94499 8.61407L5.64391 12.0347C5.7503 12.1331 5.79794 12.2797 5.7697 12.4218L4.78782 17.3634C4.71852 17.7121 5.08976 17.9818 5.40001 17.8082L9.79628 15.3473C9.92273 15.2766 10.0769 15.2766 10.2033 15.3473L14.5996 17.8082C14.9098 17.9818 15.2811 17.7121 15.2118 17.3634L14.2299 12.4218C14.2017 12.2797 14.2493 12.1331 14.3557 12.0347L18.0546 8.61407C18.3156 8.37267 18.1738 7.93626 17.8208 7.89439L12.8177 7.3012C12.6738 7.28413 12.5491 7.19353 12.4884 7.06195Z" fill="#52575C"/>
</svg>
