<svg width="61" height="61" viewBox="0 0 61 61" fill="none" xmlns="http://www.w3.org/2000/svg">
<g clip-path="url(#clip0_1_868)">
<path d="M31.2631 57.4416C31.009 57.4416 30.7548 57.4416 30.5006 57.4416C29.9923 57.4416 29.7381 57.1874 29.2298 56.6791L12.9631 39.9041C11.9465 38.8874 11.9465 37.3624 12.9631 36.3458C13.9798 35.3291 15.5048 35.3291 16.5215 36.3458L31.009 51.3416L50.5798 31.2624C52.1048 29.7374 53.1215 27.9583 53.6298 26.1791C55.1548 21.3499 53.884 16.5208 50.5798 12.9624C49.0548 11.1833 46.7673 10.1666 44.2256 10.1666C40.6673 10.1666 36.6006 12.1999 33.0423 15.7583C32.534 16.2666 32.0256 16.5208 31.2631 16.5208C30.5006 16.5208 29.9923 16.2666 29.484 15.7583C25.9256 12.1999 21.859 10.1666 18.0465 10.1666C15.5048 10.1666 13.4715 11.1833 11.4381 12.9624C8.38814 16.0124 7.11731 20.5874 8.13398 25.1624C8.64231 26.6874 7.62565 27.9583 6.35481 28.2124C5.08398 28.4666 3.55898 27.7041 3.30481 26.4333C1.77981 20.3333 3.55898 13.9791 8.13398 9.40409C10.9298 6.60825 14.234 5.08325 18.0465 5.08325C22.3673 5.08325 26.9423 7.11659 31.009 10.6749C35.3298 7.11659 39.9048 5.08325 44.2256 5.08325C48.0381 5.08325 51.5965 6.60825 54.3923 9.40409C59.2215 14.2333 60.7465 21.0958 58.7131 27.7041C57.9506 30.2458 56.4256 32.7874 54.3923 34.8208L33.0423 56.6791C32.534 57.1874 32.0256 57.4416 31.2631 57.4416Z" fill="#1678F2"/>
<path d="M30.7545 42.1917C29.4837 42.1917 28.7212 41.4291 28.2128 40.4125L25.1628 30.5L24.4003 33.0417C24.1462 34.0583 23.1295 34.8208 21.8587 34.8208H5.08366C3.55866 34.8208 2.54199 33.8042 2.54199 32.2792C2.54199 30.7542 3.55866 29.7375 5.08366 29.7375H20.0795L22.367 21.0958C22.8753 20.0792 23.892 19.3167 24.9087 19.3167C25.9253 19.3167 26.942 20.0792 27.4503 21.0958L31.0087 32.2792L34.3128 23.8917C34.8212 22.875 35.5837 22.3667 36.6003 22.3667C37.617 22.3667 38.6337 23.1292 38.8878 23.8917L41.1753 29.7375H44.7337C46.2587 29.7375 47.2753 30.7542 47.2753 32.2792C47.2753 33.8042 46.2587 34.8208 44.7337 34.8208H39.3962C38.3795 34.8208 37.3628 34.0583 37.1087 33.2958L36.6003 31.7708L33.042 40.6667C32.7878 41.6833 31.7712 42.1917 30.7545 42.1917Z" fill="#1678F2"/>
</g>
<defs>
<clipPath id="clip0_1_868">
<rect width="57.1875" height="52.3583" fill="white" transform="translate(2.54199 5.08325)"/>
</clipPath>
</defs>
</svg>
