<svg width="20" height="20" viewBox="0 0 20 20" fill="none" xmlns="http://www.w3.org/2000/svg">
<path d="M10 17.5C14.1421 17.5 17.5 14.1421 17.5 10C17.5 5.85786 14.1421 2.5 10 2.5C5.85786 2.5 2.5 5.85786 2.5 10C2.5 14.1421 5.85786 17.5 10 17.5Z" stroke="#52575C" stroke-width="1.5" stroke-linecap="round" stroke-linejoin="round"/>
<path d="M14.3471 16.1103C13.279 14.9174 11.7271 14.1667 9.99986 14.1667C8.27265 14.1667 6.72076 14.9174 5.65266 16.1103" stroke="#52575C" stroke-width="1.5" stroke-linecap="round" stroke-linejoin="round"/>
<path d="M10 11.6667C11.3807 11.6667 12.5 10.5474 12.5 9.16669C12.5 7.78597 11.3807 6.66669 10 6.66669C8.61929 6.66669 7.5 7.78597 7.5 9.16669C7.5 10.5474 8.61929 11.6667 10 11.6667Z" stroke="#52575C" stroke-width="1.5" stroke-linecap="round" stroke-linejoin="round"/>
</svg>
