<svg width="24" height="24" viewBox="0 0 24 24" fill="none" xmlns="http://www.w3.org/2000/svg">
<g clip-path="url(#clip0_0_18)">
<path d="M14.7015 20.8623L14.7124 20.8699C15.6569 21.4713 16.7782 21.7324 17.8912 21.6102C19.0041 21.488 20.0421 20.9897 20.8335 20.1977L21.521 19.5102C21.6734 19.3579 21.7943 19.1771 21.8767 18.9781C21.9592 18.7791 22.0016 18.5658 22.0016 18.3504C22.0016 18.135 21.9592 17.9218 21.8767 17.7228C21.7943 17.5238 21.6734 17.343 21.521 17.1907L18.6212 14.293C18.4689 14.1407 18.2881 14.0198 18.0891 13.9373C17.8901 13.8549 17.6769 13.8124 17.4614 13.8124C17.246 13.8124 17.0328 13.8549 16.8338 13.9373C16.6348 14.0198 16.454 14.1407 16.3017 14.293C15.9943 14.6004 15.5773 14.7731 15.1425 14.7731C14.7078 14.7731 14.2908 14.6004 13.9834 14.293L9.34662 9.65521C9.03925 9.34775 8.86658 8.93079 8.86658 8.49603C8.86658 8.06127 9.03925 7.64431 9.34662 7.33685C9.49898 7.18459 9.61985 7.00379 9.70231 6.8048C9.78477 6.60581 9.82722 6.39252 9.82722 6.17712C9.82722 5.96172 9.78477 5.74843 9.70231 5.54944C9.61985 5.35045 9.49898 5.16965 9.34662 5.01739L6.44785 2.11971C6.14038 1.81233 5.72342 1.63966 5.28867 1.63966C4.85391 1.63966 4.43695 1.81233 4.12948 2.11971L3.44086 2.80724C2.64904 3.5988 2.15097 4.63682 2.02894 5.74977C1.90692 6.86272 2.16824 7.984 2.76972 8.92833L2.77628 8.93926C5.95289 13.6392 10.001 17.6865 14.7015 20.8623V20.8623Z" stroke="#1678F2" stroke-width="1.67948" stroke-linecap="round" stroke-linejoin="round"/>
</g>
<defs>
<clipPath id="clip0_0_18">
<rect width="23.9926" height="23.9926" fill="white" transform="scale(1.00031)"/>
</clipPath>
</defs>
</svg>
