<svg width="20" height="20" viewBox="0 0 20 20" fill="none" xmlns="http://www.w3.org/2000/svg">
<path d="M12.5 14.1667H7.5V15C7.5 16.3807 8.61929 17.5 10 17.5C11.3807 17.5 12.5 16.3807 12.5 15V14.1667Z" stroke="#52575C" stroke-width="1.5" stroke-linecap="round" stroke-linejoin="round"/>
<path d="M4.16667 14.1666H15.8333C16.2936 14.1666 16.6667 13.7935 16.6667 13.3333V12.8451C16.6667 12.6241 16.5789 12.4122 16.4226 12.2559L15.9969 11.8302C15.8922 11.7254 15.8333 11.5834 15.8333 11.4353V8.33327C15.8333 5.11161 13.2217 2.49993 9.99999 2.49994C6.77833 2.49995 4.16667 5.11162 4.16667 8.33327V11.4353C4.16667 11.5834 4.10783 11.7255 4.0031 11.8302L3.57741 12.2559C3.42113 12.4122 3.33334 12.6241 3.33334 12.8451V13.3333C3.33334 13.7935 3.70643 14.1666 4.16667 14.1666Z" stroke="#52575C" stroke-width="1.5" stroke-linecap="round" stroke-linejoin="round"/>
</svg>
