<svg width="24" height="24" viewBox="0 0 24 24" fill="none" xmlns="http://www.w3.org/2000/svg">
<path fill-rule="evenodd" clip-rule="evenodd" d="M12.511 14.0662C10.9842 14.0662 9.74585 12.8285 9.74585 11.3011C9.74585 10.5272 10.0627 9.82951 10.575 9.3269C10.7652 9.14029 10.7682 8.83481 10.5815 8.64459C10.3949 8.45437 10.0895 8.45144 9.89923 8.63805C9.20973 9.31447 8.78088 10.2573 8.78088 11.3011C8.78088 13.3616 10.4515 15.0311 12.511 15.0311C13.5538 15.0311 14.4975 14.6023 15.174 13.9128C15.3606 13.7226 15.3577 13.4171 15.1674 13.2305C14.9772 13.0439 14.6717 13.0468 14.4851 13.237C13.9826 13.7493 13.284 14.0662 12.511 14.0662Z" fill="#677185"/>
<path fill-rule="evenodd" clip-rule="evenodd" d="M4.86111 15.2957C6.41183 17.2 8.87399 19.1561 12.4277 19.1561C14.8378 19.1561 16.7563 18.2539 18.2277 17.0767C18.4336 16.912 18.4659 16.6129 18.3 16.4086C18.1341 16.2042 17.8328 16.1721 17.627 16.3368C16.2907 17.4059 14.5781 18.2057 12.4277 18.2057C9.27023 18.2057 7.05477 16.4778 5.60565 14.6983C4.88215 13.8098 4.3593 12.919 4.0174 12.2495C3.84675 11.9153 3.72195 11.6378 3.64038 11.4454C3.62008 11.3975 3.60247 11.3549 3.58752 11.3181C3.62404 11.2327 3.67542 11.1165 3.74195 10.9749C3.89471 10.6496 4.12677 10.1914 4.4415 9.66592C5.07302 8.61146 6.02696 7.30341 7.32587 6.24932C7.53055 6.08322 7.56083 5.78386 7.39351 5.58069C7.22618 5.37751 6.92461 5.34745 6.71993 5.51355C5.30514 6.66167 4.28385 8.06945 3.61857 9.18027C3.2849 9.73741 3.03816 10.2243 2.87424 10.5733C2.79222 10.7479 2.73079 10.8884 2.68944 10.9863C2.66876 11.0352 2.6531 11.0736 2.64238 11.1002C2.63702 11.1136 2.6329 11.124 2.63001 11.1314L2.62659 11.1401L2.62557 11.1428L2.62523 11.1437L2.6251 11.144C2.62505 11.1441 2.625 11.1442 3.07245 11.3131C2.62152 11.4726 2.62159 11.4728 2.62168 11.473L2.6219 11.4736L2.62252 11.4753L2.62449 11.4807C2.62614 11.4852 2.62845 11.4915 2.63142 11.4994C2.63736 11.5154 2.64596 11.5381 2.65727 11.5671C2.67988 11.6252 2.71332 11.7087 2.75796 11.814C2.8472 12.0245 2.9814 12.3226 3.16349 12.6792C3.52708 13.3911 4.0847 14.3422 4.86111 15.2957ZM3.07245 11.3131L2.62152 11.4726C2.58335 11.3662 2.58458 11.2498 2.625 11.1442L3.07245 11.3131Z" fill="#677185"/>
<path fill-rule="evenodd" clip-rule="evenodd" d="M18.8438 15.5988C19.0391 15.7718 19.3393 15.7554 19.5142 15.5622C20.4324 14.5476 21.0912 13.4911 21.5203 12.6904C21.7352 12.2893 21.8935 11.9504 21.9987 11.7102C22.0513 11.59 22.0907 11.4944 22.1173 11.4279C22.1306 11.3946 22.1407 11.3686 22.1476 11.3504C22.1511 11.3413 22.1538 11.3342 22.1557 11.3291L22.158 11.3229L22.1587 11.321L22.1589 11.3203L22.159 11.3201C22.1591 11.32 22.1591 11.3199 21.7128 11.1598C22.1566 10.9931 22.1565 10.9929 22.1564 10.9927L22.1556 10.9904L22.1535 10.9851C22.1518 10.9807 22.1493 10.9745 22.1462 10.9667C22.1399 10.9509 22.1309 10.9284 22.1189 10.8996C22.0951 10.8419 22.0599 10.759 22.0131 10.6543C21.9196 10.445 21.7795 10.1484 21.5911 9.79359C21.2149 9.0851 20.6431 8.13857 19.8604 7.18968C18.2996 5.29759 15.8531 3.34372 12.4132 3.34372C10.8618 3.34372 9.50726 3.7431 8.34514 4.35712C8.11387 4.47932 8.02653 4.76383 8.15005 4.9926C8.27357 5.22138 8.56119 5.30778 8.79245 5.18559C9.83135 4.63667 11.0334 4.28295 12.4132 4.28295C15.4522 4.28295 17.6555 6.00234 19.1247 7.7835C19.8571 8.67124 20.3953 9.56134 20.7505 10.2303C20.9278 10.5643 21.0587 10.8416 21.1447 11.0341C21.1665 11.0828 21.1854 11.126 21.2014 11.1634C21.1814 11.2116 21.1568 11.2698 21.1274 11.3369C21.0308 11.5576 20.8831 11.874 20.6814 12.2506C20.277 13.0052 19.6597 13.9933 18.8068 14.9357C18.6319 15.1289 18.6485 15.4258 18.8438 15.5988ZM21.7128 11.1598L22.1566 10.9931C22.1969 11.0982 22.1978 11.2142 22.1591 11.3199L21.7128 11.1598Z" fill="#677185"/>
<path fill-rule="evenodd" clip-rule="evenodd" d="M15.4281 12.2743C15.6749 12.3191 15.9087 12.1398 15.9502 11.874C15.9821 11.6702 16.0002 11.4594 16.0002 11.2419C16.0002 9.15864 14.4319 7.46873 12.4965 7.46873C12.2946 7.46873 12.0988 7.48823 11.9095 7.52254C11.6627 7.56728 11.4963 7.81903 11.5378 8.08484C11.5794 8.35066 11.8131 8.52987 12.06 8.48513C12.2036 8.45909 12.349 8.44487 12.4965 8.44487C13.9312 8.44487 15.0937 9.69757 15.0937 11.2419C15.0937 11.4008 15.0805 11.5573 15.0564 11.712C15.0148 11.9778 15.1812 12.2296 15.4281 12.2743Z" fill="#677185"/>
<path fill-rule="evenodd" clip-rule="evenodd" d="M8.78088 11.3011C8.78088 13.3615 10.4505 15.0311 12.511 15.0311C13.5547 15.0311 14.4975 14.6023 15.174 13.9128C15.3606 13.7226 15.3577 13.4171 15.1674 13.2305C14.9772 13.0439 14.6717 13.0468 14.4851 13.237C13.9825 13.7493 13.2849 14.0662 12.511 14.0662C10.9834 14.0662 9.74585 12.8286 9.74585 11.3011C9.74585 10.528 10.0627 9.82946 10.575 9.3269C10.7652 9.14029 10.7682 8.83481 10.5815 8.64459C10.3949 8.45437 10.0894 8.45144 9.89923 8.63805C9.20968 9.31452 8.78088 10.2582 8.78088 11.3011Z" fill="#677185"/>
<path fill-rule="evenodd" clip-rule="evenodd" d="M20.6751 19.3621C20.8587 19.1786 20.8587 18.8811 20.6751 18.6976L5.11515 3.13761C4.93165 2.95411 4.63414 2.95411 4.45064 3.13761C4.26714 3.32111 4.26714 3.61863 4.45064 3.80213L20.0106 19.3621C20.1941 19.5456 20.4916 19.5456 20.6751 19.3621Z" fill="#677185"/>
</svg>
