<svg width="22" height="21" viewBox="0 0 22 21" fill="none" xmlns="http://www.w3.org/2000/svg">
<path d="M0 2.43382C0 1.72835 0.24775 1.14635 0.743229 0.687818C1.23871 0.229265 1.88285 0 2.67563 0C3.45425 0 4.08422 0.225731 4.56555 0.677236C5.06103 1.14284 5.30878 1.74951 5.30878 2.49731C5.30878 3.17454 5.06812 3.73889 4.58679 4.1904C4.09131 4.656 3.44009 4.8888 2.63316 4.8888H2.61192C1.83329 4.8888 1.20333 4.656 0.721994 4.1904C0.240658 3.7248 0 3.13926 0 2.43382ZM0.276057 20.952V6.81469H4.99025V20.952H0.276057ZM7.60218 20.952H12.3164V13.058C12.3164 12.5641 12.373 12.1832 12.4863 11.9151C12.6844 11.4354 12.9853 11.0298 13.3887 10.6982C13.7922 10.3666 14.2983 10.2009 14.9071 10.2009C16.4926 10.2009 17.2854 11.2661 17.2854 13.3966V20.952H21.9996V12.8463C21.9996 10.7582 21.5041 9.17443 20.5131 8.09508C19.5222 7.01574 18.2127 6.47607 16.5846 6.47607C14.7584 6.47607 13.3357 7.25912 12.3164 8.82523V8.86756H12.2951L12.3164 8.82523V6.81469H7.60218C7.63048 7.26617 7.64464 8.67002 7.64464 11.0262C7.64464 13.3825 7.63048 16.691 7.60218 20.952Z" fill="#1678F2"/>
</svg>
